<svg width="31" height="47" viewBox="0 0 31 47" fill="none" xmlns="http://www.w3.org/2000/svg">
<g clip-path="url(#clip0_92_853)">
<path d="M5.63748 46.7933C4.86045 46.435 4.52718 45.527 4.89274 44.7656C4.89274 44.7649 4.98289 44.5781 5.14955 44.2151C5.31541 43.8512 5.55527 43.3186 5.84268 42.652C6.41757 41.3169 7.18633 39.4425 7.95292 37.3002C9.4905 33.0249 10.9961 27.636 10.9855 23.5272C10.9855 23.0884 10.9696 22.6656 10.9356 22.2616C10.6644 18.8256 8.65093 14.5113 6.4135 10.8591C4.18503 7.19677 1.77225 4.15599 0.826377 3.00652C0.55572 2.67745 0.412455 2.51179 0.411709 2.51099C-0.143035 1.86875 -0.0608882 0.907009 0.595267 0.364082C1.25135 -0.179575 2.23196 -0.0990705 2.7867 0.543905C2.81479 0.577211 5.38718 3.55796 8.07529 7.69462C10.7538 11.8477 13.5972 17.0938 14.0344 22.0122C14.0754 22.5085 14.0948 23.0144 14.0948 23.5272C14.0843 28.3081 12.4693 33.8626 10.8874 38.3086C9.29982 42.7443 7.72099 46.0322 7.70654 46.0634C7.44159 46.6155 6.8825 46.9387 6.29893 46.9387C6.07698 46.9387 5.85156 46.8918 5.63748 46.7933Z" fill="white"/>
<path d="M23.2756 46.0632C23.262 46.032 21.6822 42.7447 20.0948 38.3084C18.5119 33.8624 16.8969 28.3079 16.8862 23.5277C16.8862 23.0125 16.9064 22.5068 16.9477 22.0121C17.3854 17.0935 20.2291 11.8485 22.9074 7.69526C25.5963 3.55852 28.1679 0.577781 28.196 0.543744L28.1968 0.544475C28.751 -0.0985007 29.7314 -0.178873 30.3877 0.363854C31.0428 0.907512 31.1256 1.86852 30.571 2.51156C30.571 2.51229 30.4268 2.67802 30.1565 3.00702C29.8859 3.33516 29.4954 3.81812 29.0246 4.4256C28.0825 5.64068 26.8148 7.35502 25.5306 9.33155C22.9518 13.2708 20.3521 18.3299 20.0469 22.2622C20.0132 22.6676 19.9957 23.0906 19.9957 23.5277C19.9885 27.119 21.1356 31.7022 22.4576 35.648C23.7755 39.6007 25.2501 42.9429 25.8332 44.2148C25.999 44.5786 26.089 44.7653 26.0901 44.7661C26.4557 45.5275 26.1221 46.4348 25.3447 46.7938C25.1306 46.8923 24.9059 46.9393 24.6843 46.9393C24.1004 46.9392 23.5405 46.6152 23.2756 46.0632Z" fill="white"/>
<path d="M14.1411 13.5356L9.96282 6.36958C9.60168 5.74987 9.72581 4.97221 10.2623 4.49051L14.4407 0.736761C15.0355 0.201679 15.9466 0.201679 16.5414 0.736761L20.7197 4.49051C21.2561 4.97148 21.3802 5.74987 21.0192 6.36958L16.8408 13.5356C16.5653 14.0078 16.0464 14.3028 15.4911 14.3028C14.9362 14.3028 14.4167 14.0078 14.1411 13.5356ZM13.2789 5.91447L15.4907 9.70838L17.7033 5.91374L15.4911 3.92638L13.2789 5.91447Z" fill="white"/>
</g>
<defs>
<clipPath id="clip0_92_853">
<rect width="31" height="47" fill="white"/>
</clipPath>
</defs>
</svg>
